# xmcd CD database file
#
# Track frame offsets:
#	150
#	14504
#	34219
#	50991
#	62272
#	74875
#	96186
#	116666
#	136683
#	148617
#	159981
#	173930
#
# Disc length: 2493 seconds
#
# Revision: 0
# Processed by: cddbd v1.5.2PL0 Copyright (c) Steve Scherf et al.
# Submitted via: CDex 1.70beta2
#
DISCID=ae09bb0c
DTITLE=Roadhouse - Kentucky
DYEAR=2007
DGENRE=Country
TTITLE0=Mirror Mirror
TTITLE1=Amy´s Back In Austin
TTITLE2=Black Coffee
TTITLE3=Some Days You Gotta Dance
TTITLE4=Tequilla Sunrise
TTITLE5=Already Gone
TTITLE6=Tennessee Waltz
TTITLE7=Copperhead Road
TTITLE8=What Do I Do
TTITLE9=Teach You Children
TTITLE10=Fat Bottom Giris
TTITLE11=Seven Bridges Road
EXTD=YEAR: 2007
EXTT0=
EXTT1=
EXTT2=
EXTT3=
EXTT4=
EXTT5=
EXTT6=
EXTT7=
EXTT8=
EXTT9=
EXTT10=
EXTT11=
PLAYORDER=
